<svg version="1.1" xmlns="http://www.w3.org/2000/svg" xmlns:xlink="http://www.w3.org/1999/xlink" width="20.82" height="20.59" viewBox="0,0,20.82,20.59"><g transform="translate(-309.59,-169.705)"><g data-paper-data="{&quot;isPaintingLayer&quot;:true}" fill="#ff0000" fill-rule="nonzero" stroke="none" stroke-width="1" stroke-linecap="butt" stroke-linejoin="miter" stroke-miterlimit="10" stroke-dasharray="" stroke-dashoffset="0" style="mix-blend-mode: normal"><path d="M309.59,179.225c0,-1.16 0.36,-2.19 1.08,-3.09c0.72,-0.9 1.64,-1.49 2.74,-1.74c0.31,-1.37 1.01,-2.49 2.1,-3.37c1.09,-0.88 2.35,-1.32 3.77,-1.32c0.81,0 1.55,0.13 2.2,0.4c0,0.01 0,0.01 0.01,0.02c0.84,0.32 1.58,0.84 2.21,1.55h0.03c0.68,0.73 1.13,1.6 1.37,2.62h0.31c1.08,0 2.02,0.29 2.83,0.86v-0.01c0.53,0.36 0.98,0.8 1.34,1.33c0.36,0.53 0.6,1.11 0.73,1.74c0.04,0.21 0.06,0.38 0.08,0.52v0.06c0,0.01 0,0.06 0.01,0.17c0.01,0.11 0.01,0.19 0.01,0.24v0.03c0,0.88 -0.21,1.7 -0.64,2.45c-0.42,0.75 -1,1.36 -1.74,1.81c-0.73,0.45 -1.54,0.69 -2.42,0.72c-0.13,0 -0.2,-0.06 -0.2,-0.17v-1.34c0,-0.13 0.07,-0.19 0.2,-0.19c0.86,-0.04 1.58,-0.38 2.18,-1.02c0.6,-0.64 0.9,-1.39 0.9,-2.26c0,-0.89 -0.32,-1.65 -0.97,-2.29c-0.64,-0.64 -1.41,-0.96 -2.31,-0.96h-1.61c-0.12,0 -0.18,-0.06 -0.18,-0.17l-0.08,-0.59c-0.1,-1 -0.52,-1.86 -1.27,-2.59c-0.01,-0.01 -0.01,-0.02 -0.02,-0.03c-0.01,-0.01 -0.02,-0.02 -0.02,-0.03c-0.01,-0.01 -0.02,-0.02 -0.04,-0.02c0,-0.02 -0.01,-0.03 -0.02,-0.03c-0.73,-0.66 -1.58,-1.04 -2.56,-1.12c-0.07,-0.01 -0.18,-0.01 -0.34,-0.01c-1.1,0 -2.05,0.37 -2.86,1.1c-0.81,0.73 -1.27,1.64 -1.37,2.72l-0.08,0.59c-0.03,0.09 -0.11,0.14 -0.22,0.14l-0.49,0.03c-0.84,0.1 -1.55,0.46 -2.11,1.07c-0.56,0.61 -0.84,1.34 -0.84,2.18v0.04h0.03c0.01,0.48 0.11,0.93 0.3,1.35c0.2,0.43 0.46,0.79 0.8,1.09c0.21,0.18 0.45,0.34 0.74,0.48v0.01c0.4,0.19 0.8,0.3 1.21,0.32c0.11,0 0.17,0.06 0.17,0.18v1.34c0,0.11 -0.06,0.17 -0.17,0.17c-0.52,-0.03 -1.01,-0.13 -1.48,-0.3v0.01c-0.83,-0.29 -1.54,-0.77 -2.11,-1.43c-0.57,-0.66 -0.95,-1.44 -1.11,-2.31v-0.03c-0.01,-0.01 -0.01,-0.02 -0.01,-0.04c-0.06,-0.26 -0.08,-0.56 -0.08,-0.88zM315.09,186.395c0,-0.03 0.01,-0.07 0.02,-0.13c0.01,-0.05 0.02,-0.09 0.02,-0.12l0.09,-0.59c0.07,-0.24 0.2,-0.41 0.41,-0.53c0.21,-0.12 0.43,-0.14 0.68,-0.08c0.23,0.07 0.39,0.21 0.51,0.41c0.11,0.21 0.13,0.42 0.07,0.63l-0.14,0.6c-0.1,0.44 -0.35,0.66 -0.76,0.66c-0.03,0 -0.08,-0.01 -0.14,-0.02c-0.06,-0.01 -0.1,-0.02 -0.14,-0.02c-0.21,-0.06 -0.36,-0.17 -0.46,-0.33c-0.11,-0.15 -0.16,-0.31 -0.16,-0.48zM315.83,183.455c0,-0.24 0.08,-0.43 0.23,-0.59c0.15,-0.16 0.35,-0.23 0.59,-0.23c0.24,0 0.43,0.08 0.59,0.23c0.16,0.15 0.23,0.35 0.23,0.59c0,0.23 -0.08,0.42 -0.23,0.58c-0.15,0.16 -0.35,0.23 -0.59,0.23c-0.23,0 -0.42,-0.08 -0.57,-0.24c-0.16,-0.16 -0.25,-0.35 -0.25,-0.57zM317.47,189.445c0,-0.04 0.01,-0.11 0.04,-0.23l0.13,-0.59c0.07,-0.23 0.21,-0.4 0.41,-0.51c0.21,-0.12 0.42,-0.14 0.63,-0.07c0.23,0.04 0.41,0.17 0.53,0.37c0.12,0.2 0.15,0.43 0.08,0.68l-0.13,0.59c-0.1,0.41 -0.37,0.61 -0.8,0.61c-0.07,0 -0.16,-0.01 -0.24,-0.03c-0.22,-0.06 -0.38,-0.17 -0.49,-0.33c-0.1,-0.16 -0.16,-0.32 -0.16,-0.49zM318.26,186.535c0,-0.23 0.08,-0.43 0.23,-0.58c0.16,-0.16 0.35,-0.23 0.59,-0.23c0.24,0 0.43,0.08 0.59,0.23c0.16,0.16 0.23,0.35 0.23,0.58c0,0.24 -0.08,0.43 -0.23,0.59c-0.16,0.16 -0.35,0.23 -0.59,0.23c-0.23,0 -0.42,-0.08 -0.58,-0.24c-0.16,-0.16 -0.24,-0.35 -0.24,-0.58zM318.88,184.265c0,-0.1 0.01,-0.19 0.03,-0.27l0.23,-0.9c0.07,-0.23 0.21,-0.41 0.41,-0.53c0.21,-0.12 0.42,-0.15 0.64,-0.08c0.24,0.07 0.41,0.2 0.53,0.4c0.12,0.2 0.14,0.41 0.07,0.63l-0.26,0.9c-0.08,0.28 -0.22,0.46 -0.41,0.56c-0.19,0.1 -0.41,0.12 -0.64,0.06c-0.2,-0.04 -0.35,-0.14 -0.45,-0.3c-0.12,-0.16 -0.16,-0.32 -0.15,-0.47zM321.64,186.405c0,-0.03 0,-0.08 0.01,-0.13c0.01,-0.05 0.01,-0.09 0.01,-0.11l0.09,-0.59c0.07,-0.24 0.2,-0.41 0.41,-0.53c0.21,-0.12 0.43,-0.14 0.68,-0.08c0.23,0.07 0.4,0.21 0.51,0.41c0.12,0.21 0.14,0.42 0.07,0.63l-0.14,0.6c-0.1,0.44 -0.35,0.66 -0.76,0.66c-0.03,0 -0.08,-0.01 -0.14,-0.02c-0.06,-0.01 -0.11,-0.02 -0.14,-0.02c-0.2,-0.06 -0.35,-0.17 -0.45,-0.33c-0.09,-0.16 -0.15,-0.32 -0.15,-0.49zM322.38,183.465c0,-0.24 0.08,-0.43 0.23,-0.59c0.16,-0.16 0.35,-0.23 0.59,-0.23c0.24,0 0.43,0.08 0.59,0.23c0.16,0.16 0.23,0.35 0.23,0.59c0,0.23 -0.08,0.43 -0.23,0.58c-0.15,0.15 -0.34,0.23 -0.58,0.23c-0.24,0 -0.43,-0.08 -0.58,-0.24c-0.16,-0.15 -0.25,-0.34 -0.25,-0.57z"/></g></g></svg>