<svg version="1.1" xmlns="http://www.w3.org/2000/svg" xmlns:xlink="http://www.w3.org/1999/xlink" width="17.125" height="17.125" viewBox="0,0,17.125,17.125"><defs><linearGradient x1="311.4375" y1="180" x2="328.5625" y2="180" gradientUnits="userSpaceOnUse" id="color-1"><stop offset="0" stop-color="#9966ff" stop-opacity="0"/><stop offset="1" stop-color="#9966ff" stop-opacity="0"/></linearGradient><linearGradient x1="311.4375" y1="180" x2="328.5625" y2="180" gradientUnits="userSpaceOnUse" id="color-2"><stop offset="0" stop-color="#9966ff" stop-opacity="0"/><stop offset="1" stop-color="#9966ff" stop-opacity="0"/></linearGradient></defs><g transform="translate(-311.4375,-171.4375)"><g data-paper-data="{&quot;isPaintingLayer&quot;:true}" fill-rule="nonzero" stroke="none" stroke-linecap="butt" stroke-linejoin="miter" stroke-miterlimit="10" stroke-dasharray="" stroke-dashoffset="0" style="mix-blend-mode: normal"><path d="M311.4375,188.5625v-17.125h17.125v17.125z" fill="url(#color-1)" stroke-width="0"/><path d="M311.4375,188.5625v-17.125h17.125v17.125z" fill="url(#color-2)" stroke-width="0"/><path d="M317.88319,180.01191c-0.0049,-0.8583 0.5091,-1.6346 1.3013,-1.9653c0.7921,-0.3307 1.7055,-0.1503 2.3124,0.4567c0.6069,0.6071 0.7872,1.5205 0.4564,2.3126c-0.3308,0.792 -1.1072,1.3059 -1.9656,1.3009c-1.1529,-0.0226 -2.0821,-0.9519 -2.1045,-2.1048z" fill="#fc0000" stroke-width="1"/><path d="M311.50819,180.01192c-0.0049,-0.8583 0.5091,-1.6346 1.3013,-1.9653c0.7921,-0.3307 1.7055,-0.1503 2.3124,0.4567c0.6069,0.6071 0.7872,1.5205 0.4564,2.3126c-0.3308,0.792 -1.1072,1.3059 -1.9656,1.3009c-1.1529,-0.0226 -2.0821,-0.9519 -2.1045,-2.1048z" fill="#fc0000" stroke-width="1"/><path d="M324.00819,180.01192c-0.0049,-0.8583 0.5091,-1.6346 1.3013,-1.9653c0.7921,-0.3307 1.7055,-0.1503 2.3124,0.4567c0.6069,0.6071 0.7872,1.5205 0.4564,2.3126c-0.3308,0.792 -1.1072,1.3059 -1.9656,1.3009c-1.1529,-0.0226 -2.0821,-0.9519 -2.1045,-2.1048z" fill="#fc0000" stroke-width="1"/></g></g></svg>