<svg version="1.1" xmlns="http://www.w3.org/2000/svg" xmlns:xlink="http://www.w3.org/1999/xlink" width="134.83334" height="84.16666" viewBox="0,0,134.83334,84.16666"><g transform="translate(-172.58333,-137.91667)"><g data-paper-data="{&quot;isPaintingLayer&quot;:true}" fill-rule="nonzero" stroke="#ffffff" stroke-width="5.5" stroke-linejoin="miter" stroke-miterlimit="10" stroke-dasharray="" stroke-dashoffset="0" style="mix-blend-mode: normal"><path d="M175.33333,213c0,-9.02419 0,-51.8424 0,-67c0,-3.33698 2.80725,-5.33333 6.16667,-5.33333c12.66545,0 91.61431,0 116,0c4.52107,0 7.16667,2.53298 7.16667,5.33333c0,8.35759 0,50.76636 0,67c0,3.93607 -1.87475,6.33333 -5.16667,6.33333c-22.01978,0 -104.78158,0 -116.66667,0c-2.69184,0 -7.5,-3.0752 -7.5,-6.33333z" fill="none" stroke-linecap="butt"/><path d="M186.5,159.66667c0,-4.23418 3.43248,-7.66667 7.66667,-7.66667c4.23418,0 7.66667,3.43248 7.66667,7.66667c0,4.23418 -3.43248,7.66667 -7.66667,7.66667c-4.23418,0 -7.66667,-3.43248 -7.66667,-7.66667z" fill="#fcfcfc" stroke-linecap="butt"/><path d="M181.83334,215.33334l14.33333,-24l16,24.33333l16.33333,-52l14.66667,51l9.66667,-16.33333l17.33333,18.33333l12.66667,-28.66667l18.33333,27.33333z" fill="#fcfcfc" stroke-linecap="round"/></g></g></svg>