<svg version="1.1" xmlns="http://www.w3.org/2000/svg" xmlns:xlink="http://www.w3.org/1999/xlink" width="105.66667" height="125" viewBox="0,0,105.66667,125"><g transform="translate(-267.16667,-116.28801)"><g data-paper-data="{&quot;isPaintingLayer&quot;:true}" fill-rule="nonzero" stroke-linecap="butt" stroke-linejoin="miter" stroke-miterlimit="10" stroke-dasharray="" stroke-dashoffset="0" style="mix-blend-mode: normal"><path d="M267.16667,241.28802v-125h105.66667v125z" fill="#1c1c1c" stroke="#ffffff" stroke-width="0"/><text transform="translate(300.46345,192.03916) scale(0.28514,0.28514)" font-size="40" xml:space="preserve" fill="#ffffff" fill-rule="nonzero" stroke="none" stroke-width="1" stroke-linecap="butt" stroke-linejoin="miter" stroke-miterlimit="10" stroke-dasharray="" stroke-dashoffset="0" font-family="&quot;Arial Black&quot;, Sans Serif" font-weight="normal" text-anchor="start" style="mix-blend-mode: normal"><tspan x="0" dy="0">Wait...</tspan></text><path d="M312.66667,171.87249c0,-4.05009 3.28325,-7.33333 7.33333,-7.33333c4.05009,0 7.33333,3.28325 7.33333,7.33333c0,4.05009 -3.28325,7.33333 -7.33333,7.33333c-4.05009,0 -7.33333,-3.28325 -7.33333,-7.33333z" fill="#ffffff" stroke="none" stroke-width="0"/><path d="M334.66667,171.87249c0,-4.05009 3.28324,-7.33333 7.33333,-7.33333c4.05009,0 7.33333,3.28324 7.33333,7.33333c0,4.05009 -3.28324,7.33333 -7.33333,7.33333c-4.05009,0 -7.33333,-3.28324 -7.33333,-7.33333z" fill="#ffffff" stroke="none" stroke-width="0"/><path d="M290.66667,171.87249c0,-4.05009 3.28324,-7.33333 7.33333,-7.33333c4.05009,0 7.33333,3.28324 7.33333,7.33333c0,4.05009 -3.28324,7.33333 -7.33333,7.33333c-4.05009,0 -7.33333,-3.28324 -7.33333,-7.33333z" fill="#ffffff" stroke="none" stroke-width="0"/></g></g></svg>