<svg version="1.1" xmlns="http://www.w3.org/2000/svg" xmlns:xlink="http://www.w3.org/1999/xlink" width="158.94037" height="27.59185" viewBox="0,0,158.94037,27.59185"><g transform="translate(-309.48187,-166.20408)"><g data-paper-data="{&quot;isPaintingLayer&quot;:true}" fill-rule="nonzero" stroke-linejoin="miter" stroke-miterlimit="10" stroke-dasharray="" stroke-dashoffset="0" style="mix-blend-mode: normal"><text transform="translate(328.96863,185.18337) scale(0.42718,0.42718)" font-size="40" xml:space="preserve" fill="#ffffff" fill-rule="nonzero" stroke="none" stroke-width="1" stroke-linecap="butt" stroke-linejoin="miter" stroke-miterlimit="10" stroke-dasharray="" stroke-dashoffset="0" font-family="Sans Serif" font-weight="normal" text-anchor="start" style="mix-blend-mode: normal"><tspan x="0" dy="0">Background</tspan></text><path d="M316.3372,173.06206l5.93215,5.93215l-5.77604,5.77604" data-paper-data="{&quot;index&quot;:null}" fill="none" stroke="#ffffff" stroke-width="3" stroke-linecap="round"/><path d="M309.48187,193.79593v-27.59185h158.94037v27.59185z" fill-opacity="0.00784" fill="#000000" stroke="#ffffff" stroke-width="0" stroke-linecap="butt"/><g stroke="#ffffff"><path d="M436.72039,184.96616c0,-1.5907 0,-9.13832 0,-11.81016c0,-0.58821 0.49484,-0.94011 1.08701,-0.94011c2.23255,0 16.14896,0 20.44745,0c0.79693,0 1.26328,0.44649 1.26328,0.94011c0,1.4732 0,8.94864 0,11.81016c0,0.69382 -0.33046,1.11638 -0.91073,1.11638c-3.88145,0 -18.46997,0 -20.56496,0c-0.47449,0 -1.32203,-0.54207 -1.32203,-1.11638z" fill="none" stroke-width="1" stroke-linecap="butt"/><path d="M438.68875,175.56503c0,-0.74636 0.60505,-1.35141 1.35141,-1.35141c0.74636,0 1.35141,0.60505 1.35141,1.35141c0,0.74636 -0.60505,1.35141 -1.35141,1.35141c-0.74636,0 -1.35141,-0.60505 -1.35141,-1.35141z" fill="#fcfcfc" stroke-width="2" stroke-linecap="butt"/><path d="M437.86615,185.37745l2.52655,-4.23051l2.82034,4.28926l2.87909,-9.1661l2.58531,8.98983l1.70395,-2.87909l3.05537,3.23164l2.23277,-5.05311l3.23164,4.81808z" fill="#fcfcfc" stroke-width="0.5" stroke-linecap="round"/></g></g></g></svg>