<svg version="1.1" xmlns="http://www.w3.org/2000/svg" xmlns:xlink="http://www.w3.org/1999/xlink" width="17.125" height="17.1555" viewBox="0,0,17.125,17.1555"><defs><linearGradient x1="231.4375" y1="180.00001" x2="248.5625" y2="180.00001" gradientUnits="userSpaceOnUse" id="color-1"><stop offset="0" stop-color="#9966ff" stop-opacity="0"/><stop offset="1" stop-color="#9966ff" stop-opacity="0"/></linearGradient></defs><g transform="translate(-231.4375,-171.42228)"><g data-paper-data="{&quot;isPaintingLayer&quot;:true}" fill-rule="nonzero" stroke="none" stroke-linecap="butt" stroke-linejoin="miter" stroke-miterlimit="10" stroke-dasharray="" stroke-dashoffset="0" style="mix-blend-mode: normal"><path d="M231.4375,188.56251v-17.125h17.125v17.125z" fill="url(#color-1)" stroke-width="0"/><path d="M245.9957,183.83019c0,2.7408 -2.4228,4.7476 -5.9712,4.7476c-3.4998,0 -6.0202,-1.9334 -6.0202,-4.6743c0,-1.3949 0.6852,-2.8145 2.5939,-3.8178c-1.2235,-0.881 -2.227,-2.1047 -2.227,-3.9646c0,-2.741 2.2025,-4.6988 5.5798,-4.6988c3.5243,0 5.6533,2.1047 5.6533,4.5031c0,1.5908 -0.93,2.8632 -2.3983,3.7198c1.3949,0.7831 2.7897,2.0557 2.7897,4.185zM242.3004,183.73219c0,-1.1502 -1.3704,-1.5662 -2.8877,-2.1781c-0.9545,0.4405 -1.7376,1.1012 -1.7376,2.0557c0,1.1013 1.0035,1.7866 2.3249,1.7866c1.248,0.0001 2.3004,-0.5629 2.3004,-1.6642zM237.9934,176.26799c0,0.9544 0.8317,1.5173 2.3249,2.1535c1.0031,-0.5138 1.6638,-1.4193 1.6638,-2.2514c0,-1.0278 -0.9786,-1.5663 -1.9576,-1.5663c-1.1259,0 -2.0311,0.6852 -2.0311,1.6642z" fill="#fc0000" stroke-width="1"/></g></g></svg>