<svg version="1.1" xmlns="http://www.w3.org/2000/svg" xmlns:xlink="http://www.w3.org/1999/xlink" width="117.94037" height="27.59185" viewBox="0,0,117.94037,27.59185"><g transform="translate(-309.48187,-166.2041)"><g data-paper-data="{&quot;isPaintingLayer&quot;:true}" fill-rule="nonzero" stroke-linejoin="miter" stroke-miterlimit="10" stroke-dasharray="" stroke-dashoffset="0" style="mix-blend-mode: normal"><text transform="translate(329.28776,185.12619) scale(0.42718,0.42718)" font-size="40" xml:space="preserve" fill="#ffffff" fill-rule="nonzero" stroke="none" stroke-width="1" stroke-linecap="butt" stroke-linejoin="miter" stroke-miterlimit="10" stroke-dasharray="" stroke-dashoffset="0" font-family="Sans Serif" font-weight="normal" text-anchor="start" style="mix-blend-mode: normal"><tspan x="0" dy="0">Weather</tspan></text><path d="M316.90632,173.00488l5.93215,5.93215l-5.77604,5.77604" data-paper-data="{&quot;index&quot;:null}" fill="none" stroke="#ffffff" stroke-width="3" stroke-linecap="round"/><path d="M403.92441,181.748c0.50656,-0.64212 1.15582,-1.0488 1.9549,-1.2343c0.21404,-0.97032 0.71347,-1.7694 1.48401,-2.39011c0.77054,-0.62072 1.65524,-0.93464 2.66123,-0.93464c0.73487,0 1.37699,0.15696 1.92636,0.47089c0.79195,-0.82762 1.71232,-1.24143 2.76825,-1.24143c0.50656,0 0.99172,0.09275 1.45547,0.29252c0.46375,0.19264 0.85616,0.46375 1.19149,0.79908c0.33533,0.33533 0.60645,0.72774 0.79908,1.19149c0.19264,0.46375 0.29252,0.94891 0.29252,1.45547c0,0.9061 -0.27112,1.69805 -0.81335,2.35444c0.19977,0.47802 0.29966,0.95605 0.29966,1.42693c0,0.64212 -0.1641,1.2343 -0.47802,1.77653c-0.31393,0.54223 -0.74914,0.97032 -1.29138,1.28424c-0.54223,0.31393 -1.13441,0.47089 -1.7694,0.47089h-7.72685c-0.63499,0 -1.22003,-0.15696 -1.76226,-0.47089c-0.54223,-0.31393 -0.97032,-0.74201 -1.28424,-1.28424c-0.31393,-0.54223 -0.47089,-1.13441 -0.47089,-1.77653c0,-0.82049 0.25685,-1.54822 0.76341,-2.19034zM405.05883,185.59359c0.45662,0.46375 0.99172,0.69206 1.61957,0.69206h7.73398c0.62785,0 1.17722,-0.22831 1.6267,-0.68493c0.44948,-0.45662 0.67779,-1.00599 0.67779,-1.65524c0,-0.62785 -0.22831,-1.16295 -0.68493,-1.61957c-0.45662,-0.45662 -0.99885,-0.68493 -1.6267,-0.68493h-1.14868c-0.08562,0 -0.13556,-0.04281 -0.14983,-0.12129l-0.04994,-0.41381c-0.07135,-0.77054 -0.39241,-1.41266 -0.97745,-1.9335c-0.57791,-0.52083 -1.26284,-0.78481 -2.04765,-0.78481c-0.76341,0 -1.43407,0.25685 -2.00484,0.77768c-0.57077,0.5137 -0.9061,1.16295 -1.00599,1.9335l-0.04994,0.38527c0,0.08562 -0.04994,0.12842 -0.13556,0.12842l-0.35673,0.0214c-0.59931,0.07135 -1.09874,0.32106 -1.49828,0.75628c-0.39954,0.43521 -0.59931,0.94891 -0.59931,1.54822c0,0.64212 0.22831,1.19149 0.67779,1.65524zM409.33963,174.75602c0.12129,-0.12129 0.27112,-0.17837 0.44235,-0.17837c0.1641,0 0.30679,0.05708 0.43521,0.17123l0.42095,0.47089c0.12129,0.10702 0.1855,0.24971 0.1855,0.42095c0,0.17123 -0.05708,0.32106 -0.17123,0.44235c-0.11415,0.12129 -0.24258,0.1855 -0.39241,0.1855c-0.12842,0.01427 -0.27825,-0.04281 -0.45662,-0.17837l-0.47089,-0.45662c-0.11415,-0.12842 -0.17123,-0.27825 -0.17123,-0.44948c0,-0.17123 0.05708,-0.31393 0.17837,-0.42808zM414.17693,180.44235h0.22831c0.97032,0 1.79794,0.34246 2.49,1.02739c0.24258,-0.42808 0.36387,-0.87043 0.36387,-1.31278c0,-0.70633 -0.24971,-1.29851 -0.74201,-1.7908c-0.49229,-0.49229 -1.0916,-0.73487 -1.79794,-0.73487c-0.67066,0 -1.2557,0.23544 -1.74799,0.71347c0.62785,0.62072 1.02739,1.31991 1.20576,2.09759zM414.13413,173.11505c0,-0.17123 0.04994,-0.31393 0.1641,-0.42095c0.11415,-0.10702 0.24971,-0.1641 0.42095,-0.1641c0.17837,0 0.32106,0.04994 0.43521,0.1641c0.11415,0.11415 0.17123,0.24971 0.17123,0.42095v1.46261c0,0.1855 -0.04994,0.32819 -0.1641,0.44235c-0.11415,0.10702 -0.25685,0.1641 -0.44235,0.1641c-0.17123,0 -0.31393,-0.04994 -0.42095,-0.1641c-0.10702,-0.11415 -0.1641,-0.25685 -0.1641,-0.44235zM418.22943,175.76915l1.0488,-1.02026c0.10702,-0.11415 0.24258,-0.17123 0.41381,-0.17123c0.1641,0 0.30679,0.05708 0.42095,0.17123c0.11415,0.11415 0.17123,0.25685 0.17123,0.42808c0,0.17837 -0.05708,0.32819 -0.17123,0.45662l-1.02026,1.02026c-0.14983,0.11415 -0.29252,0.17123 -0.42095,0.17123c-0.14269,0 -0.29252,-0.05708 -0.44235,-0.17123c-0.10702,-0.11415 -0.15696,-0.25685 -0.15696,-0.44235c0,-0.1641 0.04994,-0.30679 0.15696,-0.44235zM418.8216,184.23086c0.11415,-0.11415 0.25685,-0.17123 0.42808,-0.17123c0.15696,0 0.29252,0.05708 0.40668,0.17123l0.46375,0.46375c0.11415,0.11415 0.17123,0.25685 0.17123,0.41381c0,0.17837 -0.05708,0.32106 -0.17123,0.44235c-0.11415,0.12129 -0.25685,0.17837 -0.42808,0.17837c-0.17123,0 -0.30679,-0.05708 -0.41381,-0.17123l-0.46375,-0.44948c-0.12129,-0.12842 -0.17837,-0.27825 -0.17837,-0.44948c0,-0.17123 0.06421,-0.31393 0.1855,-0.42808zM419.8704,179.72889c0.12129,-0.12129 0.26398,-0.17837 0.43521,-0.17837h1.45547c0.1641,0 0.30679,0.06421 0.41381,0.17837c0.10702,0.11415 0.1641,0.25685 0.1641,0.42808c0,0.17123 -0.04994,0.31393 -0.1641,0.42095c-0.11415,0.10702 -0.24971,0.1641 -0.41381,0.1641h-1.45547c-0.17123,0 -0.32106,-0.05708 -0.43521,-0.17123c-0.12129,-0.11415 -0.1855,-0.24971 -0.1855,-0.41381c0,-0.1641 0.05708,-0.30679 0.1855,-0.42808z" fill="#ffffff" stroke="none" stroke-width="1" stroke-linecap="butt"/><path d="M309.48187,193.79596v-27.59185h117.94037v27.59185z" fill-opacity="0.00784" fill="#000000" stroke="#ffffff" stroke-width="0" stroke-linecap="butt"/></g></g></svg>