<svg version="1.1" xmlns="http://www.w3.org/2000/svg" xmlns:xlink="http://www.w3.org/1999/xlink" width="21.73" height="16.49" viewBox="0,0,21.73,16.49"><g transform="translate(-309.135,-171.755)"><g data-paper-data="{&quot;isPaintingLayer&quot;:true}" fill="#ff0000" fill-rule="nonzero" stroke="none" stroke-width="1" stroke-linecap="butt" stroke-linejoin="miter" stroke-miterlimit="10" stroke-dasharray="" stroke-dashoffset="0" style="mix-blend-mode: normal"><path d="M309.135,183.295c0,-1.16 0.35,-2.18 1.06,-3.08c0.71,-0.9 1.62,-1.47 2.74,-1.72c0.23,-1.03 0.7,-1.93 1.4,-2.7c0.7,-0.77 1.55,-1.32 2.53,-1.65c0.62,-0.21 1.26,-0.32 1.93,-0.32c0.81,0 1.6,0.16 2.35,0.48c0.28,-0.47 0.61,-0.88 0.99,-1.22c0.38,-0.34 0.77,-0.61 1.17,-0.79c0.4,-0.18 0.8,-0.32 1.18,-0.41c0.38,-0.09 0.76,-0.13 1.12,-0.13c0.38,0 0.79,0.05 1.23,0.16l0.82,0.25c0.14,0.06 0.18,0.13 0.14,0.22l-0.14,0.6c-0.07,0.31 -0.1,0.6 -0.1,0.86c0,0.31 0.05,0.63 0.15,0.95c0.1,0.32 0.24,0.63 0.44,0.94c0.19,0.31 0.46,0.58 0.8,0.83c0.34,0.25 0.72,0.44 1.15,0.57l0.62,0.22c0.1,0.03 0.15,0.08 0.15,0.16c0,0.02 -0.01,0.04 -0.02,0.07l-0.18,0.67c-0.27,1.08 -0.78,1.93 -1.5,2.57c0.4,0.7 0.62,1.45 0.65,2.24c0.01,0.05 0.01,0.12 0.01,0.23c0,0.89 -0.22,1.72 -0.67,2.48c-0.44,0.76 -1.05,1.36 -1.8,1.8c-0.76,0.44 -1.59,0.67 -2.48,0.67h-10.81c-0.89,0 -1.72,-0.22 -2.48,-0.67c-0.76,-0.45 -1.35,-1.05 -1.79,-1.8c-0.44,-0.75 -0.66,-1.58 -0.66,-2.48zM310.845,183.295c0,0.89 0.32,1.66 0.96,2.31c0.64,0.65 1.39,0.98 2.26,0.98h10.81c0.89,0 1.65,-0.32 2.28,-0.97c0.63,-0.65 0.95,-1.42 0.95,-2.32c0,-0.88 -0.32,-1.63 -0.96,-2.26c-0.64,-0.63 -1.4,-0.95 -2.28,-0.95h-1.78l-0.1,-0.75c-0.1,-1.01 -0.52,-1.88 -1.26,-2.59c-0.74,-0.71 -1.62,-1.11 -2.63,-1.2c-0.03,0 -0.08,0 -0.15,-0.01c-0.07,-0.01 -0.11,-0.01 -0.15,-0.01c-0.51,0 -1.02,0.1 -1.54,0.29v-0.02c-0.73,0.28 -1.35,0.74 -1.84,1.37c-0.5,0.63 -0.8,1.35 -0.9,2.17l-0.07,0.72l-0.68,0.03c-0.84,0.1 -1.54,0.45 -2.1,1.06c-0.56,0.61 -0.82,1.32 -0.82,2.15zM322.595,175.185c1.06,0.91 1.72,1.97 1.97,3.18h0.32c1.24,0 2.3,0.39 3.17,1.18c0.33,-0.31 0.58,-0.67 0.76,-1.07c-0.91,-0.43 -1.63,-1.09 -2.16,-1.97c-0.52,-0.88 -0.79,-1.81 -0.79,-2.78v-0.24c-0.05,-0.01 -0.13,-0.01 -0.24,-0.01c-0.58,-0.01 -1.15,0.13 -1.7,0.44c-0.55,0.3 -1,0.72 -1.33,1.27z"/></g></g></svg>