<svg version="1.1" xmlns="http://www.w3.org/2000/svg" xmlns:xlink="http://www.w3.org/1999/xlink" width="17.125" height="17.1555" viewBox="0,0,17.125,17.1555"><defs><linearGradient x1="231.4375" y1="180" x2="248.5625" y2="180" gradientUnits="userSpaceOnUse" id="color-1"><stop offset="0" stop-color="#9966ff" stop-opacity="0"/><stop offset="1" stop-color="#9966ff" stop-opacity="0"/></linearGradient></defs><g transform="translate(-231.4375,-171.42227)"><g data-paper-data="{&quot;isPaintingLayer&quot;:true}" fill-rule="nonzero" stroke="none" stroke-linecap="butt" stroke-linejoin="miter" stroke-miterlimit="10" stroke-dasharray="" stroke-dashoffset="0" style="mix-blend-mode: normal"><path d="M231.4375,188.5625v-17.125h17.125v17.125z" fill="url(#color-1)" stroke-width="0"/><path d="M245.8618,183.53637c0,2.9613 -2.4963,5.0414 -6.1181,5.0414c-2.0556,0 -3.5974,-0.4894 -4.6009,-1.248c-0.6362,-0.4895 -1.0035,-1.028 -1.0035,-1.7622c-0.0174,-0.4551 0.1592,-0.8963 0.4859,-1.2137c0.3267,-0.3174 0.7729,-0.4811 1.2273,-0.4505c0.556,0.0266 1.0884,0.2327 1.5173,0.5875c0.707,0.476 1.5466,0.7159 2.3984,0.6852c1.2969,0 2.2514,-0.8321 2.2514,-1.9089c0,-1.0278 -0.8076,-1.8844 -2.5697,-1.8844h-1.0521c-0.5878,0.0443 -1.1508,-0.2442 -1.4582,-0.747c-0.3074,-0.5029 -0.3074,-1.1356 0,-1.6384c0.3074,-0.5029 0.8704,-0.7914 1.4582,-0.7471h1.0031c1.2973,0 2.2028,-0.6852 2.2028,-1.6887c0,-1.0033 -0.881,-1.7375 -2.0559,-1.7375c-0.7106,0.0244 -1.399,0.2539 -1.9821,0.6608c-0.3383,0.2343 -0.7389,0.3621 -1.1504,0.367c-0.4388,-0.001 -0.8579,-0.1825 -1.1588,-0.5019c-0.3009,-0.3195 -0.4571,-0.7486 -0.432,-1.1867c0.0284,-0.5686 0.3173,-1.0923 0.7832,-1.4194c0.8565,-0.7097 2.4962,-1.3216 4.2829,-1.3216c3.059,0 5.4329,1.5907 5.4329,4.4296c0.0367,1.5458 -0.7947,2.982 -2.1535,3.7198c1.6397,0.7099 2.6918,2.0558 2.6918,3.9647z" fill="#fc0000" stroke-width="1"/></g></g></svg>