<svg version="1.1" xmlns="http://www.w3.org/2000/svg" xmlns:xlink="http://www.w3.org/1999/xlink" width="17.125" height="17.125" viewBox="0,0,17.125,17.125"><defs><linearGradient x1="231.4375" y1="180" x2="248.5625" y2="180" gradientUnits="userSpaceOnUse" id="color-1"><stop offset="0" stop-color="#9966ff" stop-opacity="0"/><stop offset="1" stop-color="#9966ff" stop-opacity="0"/></linearGradient></defs><g transform="translate(-231.4375,-171.4375)"><g data-paper-data="{&quot;isPaintingLayer&quot;:true}" fill-rule="nonzero" stroke="none" stroke-linecap="butt" stroke-linejoin="miter" stroke-miterlimit="10" stroke-dasharray="" stroke-dashoffset="0" style="mix-blend-mode: normal"><path d="M231.4375,188.5625v-17.125h17.125v17.125z" fill="url(#color-1)" stroke-width="0"/><path d="M245.8126,182.963c0,3.1325 -2.3249,5.5552 -5.7268,5.5552c-3.3525,0 -5.8978,-2.5696 -5.8978,-6.3873c-0.0472,-4.4855 2.6075,-8.5593 6.7299,-10.3276c0.4376,-0.2025 0.9128,-0.3109 1.3949,-0.3181c0.4432,-0.0293 0.8775,0.134 1.1916,0.4481c0.3141,0.3141 0.4774,0.7484 0.4481,1.1916c0,0.9543 -0.6852,1.3949 -1.4683,1.7864c-1.5849,0.7257 -2.8845,1.9565 -3.6953,3.4996c0.6108,-0.2674 1.2667,-0.4169 1.9332,-0.4405c2.9614,0 5.0905,2.1782 5.0905,4.9926zM241.9704,183.1097c0,-1.2236 -0.7831,-2.0312 -1.958,-2.0312c-0.7557,0.0286 -1.4834,0.294 -2.0801,0.7586v0.514c0,1.6397 0.6607,2.7899 2.1535,2.7899c1.1259,0 1.8846,-0.8566 1.8846,-2.0313z" fill="#fc0000" stroke-width="1"/></g></g></svg>