<svg version="1.1" xmlns="http://www.w3.org/2000/svg" xmlns:xlink="http://www.w3.org/1999/xlink" width="17.125" height="17.125" viewBox="0,0,17.125,17.125"><defs><linearGradient x1="231.4375" y1="180" x2="248.5625" y2="180" gradientUnits="userSpaceOnUse" id="color-1"><stop offset="0" stop-color="#9966ff" stop-opacity="0"/><stop offset="1" stop-color="#9966ff" stop-opacity="0"/></linearGradient></defs><g transform="translate(-231.4375,-171.4375)"><g data-paper-data="{&quot;isPaintingLayer&quot;:true}" fill-rule="nonzero" stroke="none" stroke-linecap="butt" stroke-linejoin="miter" stroke-miterlimit="10" stroke-dasharray="" stroke-dashoffset="0" style="mix-blend-mode: normal"><path d="M231.4375,188.5625v-17.125h17.125v17.125z" fill="url(#color-1)" stroke-width="0"/><path d="M245.5549,173.2694c-0.0137,0.4637 -0.1396,0.9172 -0.3669,1.3216l-5.8981,12.7748c-0.332,0.6936 -1.0423,1.1256 -1.8108,1.1013c-0.9144,-0.0374 -1.6316,-0.7981 -1.6152,-1.713c0.0029,-0.3226 0.0781,-0.6404 0.22,-0.9301l5.2129,-10.8169h-5.115c-0.9597,0 -1.7376,-0.778 -1.7376,-1.7376c0,-0.9596 0.778,-1.7375 1.7376,-1.7375h7.7089c0.4527,0.0048 0.8843,0.1918 1.1975,0.5187c0.3131,0.327 0.4813,0.7663 0.4667,1.2187z" fill="#fc0000" stroke-width="1"/></g></g></svg>