<svg version="1.1" xmlns="http://www.w3.org/2000/svg" xmlns:xlink="http://www.w3.org/1999/xlink" width="17.125" height="17.125" viewBox="0,0,17.125,17.125"><defs><linearGradient x1="231.4375" y1="180" x2="248.5625" y2="180" gradientUnits="userSpaceOnUse" id="color-1"><stop offset="0" stop-color="#9966ff" stop-opacity="0"/><stop offset="1" stop-color="#9966ff" stop-opacity="0"/></linearGradient></defs><g transform="translate(-231.4375,-171.4375)"><g data-paper-data="{&quot;isPaintingLayer&quot;:true}" fill-rule="nonzero" stroke="none" stroke-linecap="butt" stroke-linejoin="miter" stroke-miterlimit="10" stroke-dasharray="" stroke-dashoffset="0" style="mix-blend-mode: normal"><path d="M231.4375,188.5625v-17.125h17.125v17.125z" fill="url(#color-1)" stroke-width="0"/><path d="M245.8123,177.8692c0,5.4085 -3.426,8.8346 -6.7544,10.303c-0.4357,0.211 -0.911,0.3278 -1.3949,0.3427c-0.4432,0.0293 -0.8775,-0.1341 -1.1915,-0.4481c-0.3141,-0.3141 -0.4775,-0.7484 -0.4482,-1.1916c0,-0.9545 0.6852,-1.395 1.4683,-1.7621c1.6642,-0.7831 3.0836,-1.9334 3.8912,-3.6219c-0.6571,0.3188 -1.3745,0.4939 -2.1046,0.5138c-2.9614,0 -5.0905,-2.178 -5.0905,-4.9679c0,-3.1325 2.3249,-5.5554 5.7268,-5.5554c3.3529,0 5.8978,2.5698 5.8978,6.3875zM242.1659,178.0649v-0.1957c0,-1.8111 -0.7341,-3.0103 -2.2025,-3.0103c-1.1503,0 -1.9335,0.8566 -1.9335,2.0313c-0.0141,0.5303 0.1852,1.044 0.5534,1.426c0.3681,0.3819 0.8742,0.6 1.4046,0.6053c0.8032,-0.0252 1.5729,-0.3279 2.178,-0.8566z" fill="#fc0000" stroke-width="1"/></g></g></svg>