<svg version="1.1" xmlns="http://www.w3.org/2000/svg" xmlns:xlink="http://www.w3.org/1999/xlink" width="17.125" height="17.125" viewBox="0,0,17.125,17.125"><defs><linearGradient x1="231.4375" y1="180" x2="248.5625" y2="180" gradientUnits="userSpaceOnUse" id="color-1"><stop offset="0" stop-color="#9966ff" stop-opacity="0"/><stop offset="1" stop-color="#9966ff" stop-opacity="0"/></linearGradient></defs><g transform="translate(-231.4375,-171.4375)"><g data-paper-data="{&quot;isPaintingLayer&quot;:true}" fill-rule="nonzero" stroke="none" stroke-linecap="butt" stroke-linejoin="miter" stroke-miterlimit="10" stroke-dasharray="" stroke-dashoffset="0" style="mix-blend-mode: normal"><path d="M231.4375,188.5625v-17.125h17.125v17.125z" fill="url(#color-1)" stroke-width="0"/><path d="M245.6657,182.8148c0,3.2304 -2.3004,5.6288 -6.1181,5.6288c-1.4379,0.0169 -2.8524,-0.3643 -4.0871,-1.1014c-0.7831,-0.5383 -1.1255,-1.0276 -1.1255,-1.8353c-0.0126,-0.4106 0.1416,-0.8088 0.4275,-1.1039c0.2858,-0.2951 0.679,-0.4618 1.0898,-0.4623c0.6203,0.0221 1.2221,0.217 1.7376,0.5628c0.6245,0.3307 1.325,0.4911 2.0311,0.4648c1.028,0 2.2515,-0.6852 2.2515,-2.1535c0,-1.1011 -0.7831,-2.0066 -2.178,-2.0066c-0.553,-0.0023 -1.0955,0.1502 -1.5663,0.4403c-0.4391,0.3025 -0.9596,0.4647 -1.4928,0.4652c-0.5241,0.0136 -1.0277,-0.2043 -1.3766,-0.5957c-0.349,-0.3914 -0.5079,-0.9166 -0.4345,-1.4357l0.5628,-6.3385c0.0623,-1.0074 0.8998,-1.7912 1.909,-1.7867h6.314c0.4423,-0.0175 0.8721,0.1487 1.1874,0.4594c0.3152,0.3106 0.4879,0.7379 0.4768,1.1804c0.0117,0.4513 -0.1625,0.8876 -0.4817,1.2068c-0.3193,0.3193 -0.7556,0.4935 -1.2069,0.4818h-4.9437l-0.2934,3.1081c0.641,-0.2431 1.321,-0.3675 2.0066,-0.3669c3.3529,0 5.3105,2.2514 5.3105,5.1881z" fill="#fc0000" stroke-width="1"/></g></g></svg>