<svg version="1.1" xmlns="http://www.w3.org/2000/svg" xmlns:xlink="http://www.w3.org/1999/xlink" width="17.125" height="17.125" viewBox="0,0,17.125,17.125"><defs><linearGradient x1="231.4375" y1="180" x2="248.5625" y2="180" gradientUnits="userSpaceOnUse" id="color-1"><stop offset="0" stop-color="#9966ff" stop-opacity="0"/><stop offset="1" stop-color="#9966ff" stop-opacity="0"/></linearGradient></defs><g transform="translate(-231.4375,-171.4375)"><g data-paper-data="{&quot;isPaintingLayer&quot;:true}" fill-rule="nonzero" stroke="none" stroke-linecap="butt" stroke-linejoin="miter" stroke-miterlimit="10" stroke-dasharray="" stroke-dashoffset="0" style="mix-blend-mode: normal"><path d="M231.4375,188.5625v-17.125h17.125v17.125z" fill="url(#color-1)" stroke-width="0"/><path d="M243.8293,173.4045v13.2888c-0.0149,0.994 -0.8171,1.7961 -1.8111,1.8111c-0.4806,0.0011 -0.9418,-0.1894 -1.2817,-0.5293c-0.3398,-0.3399 -0.5302,-0.8012 -0.529,-1.2818v-11.0128l-1.5177,0.6119c-0.277,0.1284 -0.5758,0.2031 -0.8807,0.2202c-0.9102,-0.0116 -1.6415,-0.7537 -1.6397,-1.664c0.0042,-0.7271 0.4643,-1.3734 1.15,-1.6153l3.3284,-1.3705c0.4141,-0.2028 0.8621,-0.3272 1.3215,-0.3671c0.5036,-0.0057 0.9875,0.1952 1.339,0.5559c0.3515,0.3607 0.5398,0.8497 0.521,1.353z" fill="#fc0000" stroke-width="1"/></g></g></svg>