<svg version="1.1" xmlns="http://www.w3.org/2000/svg" xmlns:xlink="http://www.w3.org/1999/xlink" width="17.125" height="17.131" viewBox="0,0,17.125,17.131"><defs><linearGradient x1="231.4375" y1="180" x2="248.5625" y2="180" gradientUnits="userSpaceOnUse" id="color-1"><stop offset="0" stop-color="#9966ff" stop-opacity="0"/><stop offset="1" stop-color="#9966ff" stop-opacity="0"/></linearGradient></defs><g transform="translate(-231.4375,-171.4345)"><g data-paper-data="{&quot;isPaintingLayer&quot;:true}" fill-rule="nonzero" stroke="none" stroke-linecap="butt" stroke-linejoin="miter" stroke-miterlimit="10" stroke-dasharray="" stroke-dashoffset="0" style="mix-blend-mode: normal"><path d="M231.4375,188.5625v-17.125h17.125v17.125z" fill="url(#color-1)" stroke-width="0"/><path d="M233.8574,180.0734c0,-5.7021 2.7408,-8.6389 6.1426,-8.6389c3.4015,0 6.1426,2.8389 6.1426,8.6389c0,5.7021 -2.7411,8.4921 -6.1426,8.4921c-3.4018,0 -6.1426,-2.79 -6.1426,-8.4921zM242.2759,180c0,-3.5976 -0.881,-5.1883 -2.2759,-5.1883c-1.3704,0 -2.3004,1.5907 -2.3004,5.1883c0,3.573 0.93,5.2128 2.3004,5.2128c1.3704,0 2.2759,-1.6398 2.2759,-5.2128z" fill="#fc0000" stroke-width="1"/></g></g></svg>