<svg version="1.1" xmlns="http://www.w3.org/2000/svg" xmlns:xlink="http://www.w3.org/1999/xlink" width="15.07" height="15.09" viewBox="0,0,15.07,15.09"><g transform="translate(-312.465,-172.455)"><g data-paper-data="{&quot;isPaintingLayer&quot;:true}" fill="#ff0000" fill-rule="nonzero" stroke="none" stroke-width="1" stroke-linecap="butt" stroke-linejoin="miter" stroke-miterlimit="10" stroke-dasharray="" stroke-dashoffset="0" style="mix-blend-mode: normal"><path d="M312.465,180.015c0,-0.19 0.07,-0.36 0.2,-0.5c0.13,-0.14 0.29,-0.21 0.48,-0.21c0.19,0 0.36,0.07 0.49,0.21c0.13,0.14 0.2,0.3 0.2,0.5c0,0.19 -0.07,0.35 -0.2,0.48c-0.13,0.13 -0.3,0.2 -0.48,0.2c-0.18,0 -0.35,-0.07 -0.48,-0.2c-0.15,-0.14 -0.21,-0.3 -0.21,-0.48zM314.445,180.015c0,-0.19 0.07,-0.36 0.2,-0.5c0.13,-0.14 0.29,-0.21 0.48,-0.21h3.23l-2.28,-2.28c-0.14,-0.12 -0.21,-0.28 -0.21,-0.47c0,-0.19 0.07,-0.35 0.21,-0.49c0.14,-0.14 0.3,-0.21 0.49,-0.21c0.19,0 0.35,0.07 0.49,0.21l2.27,2.27v-3.21c0,-0.19 0.07,-0.36 0.21,-0.5c0.14,-0.14 0.3,-0.21 0.5,-0.21c0.19,0 0.35,0.07 0.48,0.21c0.13,0.14 0.2,0.3 0.2,0.5v3.23l2.29,-2.3c0.14,-0.14 0.3,-0.21 0.48,-0.21c0.18,0 0.35,0.07 0.49,0.21c0.12,0.14 0.18,0.3 0.18,0.49c0,0.19 -0.06,0.35 -0.18,0.47l-2.28,2.28h3.23c0.18,0 0.34,0.07 0.47,0.21c0.13,0.14 0.2,0.3 0.2,0.5c0,0.18 -0.07,0.34 -0.2,0.47c-0.13,0.13 -0.29,0.2 -0.47,0.2h-3.23l2.29,2.29c0.12,0.12 0.18,0.28 0.18,0.47c0,0.19 -0.06,0.35 -0.18,0.49c-0.14,0.14 -0.31,0.21 -0.49,0.21c-0.18,0 -0.35,-0.07 -0.48,-0.21l-2.29,-2.3v3.24c0,0.19 -0.07,0.36 -0.2,0.49c-0.13,0.13 -0.29,0.2 -0.48,0.2c-0.19,0 -0.36,-0.07 -0.5,-0.2c-0.14,-0.13 -0.21,-0.3 -0.21,-0.49v-3.22l-2.27,2.27c-0.14,0.14 -0.3,0.21 -0.49,0.21c-0.19,0 -0.35,-0.07 -0.49,-0.21c-0.14,-0.14 -0.21,-0.3 -0.21,-0.49c0,-0.19 0.07,-0.34 0.21,-0.47l2.3,-2.29h-3.24c-0.19,0 -0.35,-0.07 -0.48,-0.2c-0.16,-0.11 -0.22,-0.27 -0.22,-0.45zM314.455,184.855c0,-0.18 0.07,-0.35 0.21,-0.48c0.12,-0.14 0.28,-0.21 0.47,-0.21c0.19,0 0.35,0.07 0.49,0.21c0.14,0.14 0.21,0.3 0.21,0.48c0,0.18 -0.07,0.35 -0.21,0.48c-0.14,0.14 -0.3,0.21 -0.49,0.21c-0.19,0 -0.35,-0.07 -0.47,-0.21c-0.14,-0.13 -0.21,-0.29 -0.21,-0.48zM314.455,175.145c0,-0.18 0.07,-0.35 0.21,-0.48c0.12,-0.14 0.28,-0.21 0.47,-0.21c0.19,0 0.35,0.07 0.49,0.21c0.14,0.14 0.21,0.3 0.21,0.48c0,0.18 -0.07,0.35 -0.21,0.49c-0.14,0.14 -0.3,0.21 -0.49,0.21c-0.19,0 -0.35,-0.07 -0.47,-0.21c-0.14,-0.14 -0.21,-0.31 -0.21,-0.49zM319.305,186.855c0,-0.18 0.07,-0.34 0.21,-0.47c0.14,-0.13 0.3,-0.2 0.5,-0.2c0.19,0 0.35,0.07 0.48,0.2c0.13,0.13 0.2,0.29 0.2,0.47c0,0.19 -0.07,0.36 -0.2,0.49c-0.13,0.13 -0.29,0.2 -0.48,0.2c-0.19,0 -0.36,-0.07 -0.5,-0.2c-0.14,-0.13 -0.21,-0.29 -0.21,-0.49zM319.305,173.145c0,-0.19 0.07,-0.36 0.21,-0.49c0.14,-0.13 0.3,-0.2 0.5,-0.2c0.19,0 0.35,0.07 0.48,0.2c0.13,0.13 0.2,0.3 0.2,0.49c0,0.18 -0.07,0.34 -0.2,0.47c-0.13,0.13 -0.29,0.2 -0.48,0.2c-0.19,0 -0.36,-0.07 -0.5,-0.2c-0.14,-0.13 -0.21,-0.29 -0.21,-0.47zM324.175,184.855c0,-0.18 0.07,-0.35 0.21,-0.48c0.12,-0.14 0.28,-0.21 0.47,-0.21c0.19,0 0.35,0.07 0.49,0.21c0.14,0.14 0.21,0.3 0.21,0.48c0,0.18 -0.07,0.35 -0.21,0.48c-0.14,0.14 -0.3,0.21 -0.49,0.21c-0.19,0 -0.35,-0.07 -0.47,-0.21c-0.14,-0.13 -0.21,-0.29 -0.21,-0.48zM324.175,175.145c0,-0.18 0.07,-0.35 0.21,-0.48c0.12,-0.14 0.28,-0.21 0.47,-0.21c0.19,0 0.35,0.07 0.49,0.21c0.14,0.14 0.21,0.3 0.21,0.48c0,0.18 -0.07,0.35 -0.21,0.49c-0.14,0.14 -0.3,0.21 -0.49,0.21c-0.19,0 -0.35,-0.07 -0.47,-0.21c-0.14,-0.14 -0.21,-0.31 -0.21,-0.49zM326.175,180.015c0,-0.19 0.07,-0.36 0.2,-0.5c0.13,-0.14 0.3,-0.21 0.49,-0.21c0.18,0 0.34,0.07 0.47,0.21c0.13,0.14 0.2,0.3 0.2,0.5c0,0.18 -0.07,0.34 -0.2,0.47c-0.13,0.13 -0.29,0.2 -0.47,0.2c-0.19,0 -0.36,-0.07 -0.49,-0.2c-0.13,-0.13 -0.2,-0.29 -0.2,-0.47z"/></g></g></svg>