<svg version="1.1" xmlns="http://www.w3.org/2000/svg" xmlns:xlink="http://www.w3.org/1999/xlink" width="26.88" height="20.94" viewBox="0,0,26.88,20.94"><g transform="translate(-306.56,-169.53)"><g data-paper-data="{&quot;isPaintingLayer&quot;:true}" fill="#ff0000" fill-rule="nonzero" stroke="none" stroke-width="1" stroke-linecap="butt" stroke-linejoin="miter" stroke-miterlimit="10" stroke-dasharray="" stroke-dashoffset="0" style="mix-blend-mode: normal"><path d="M307.63,182.45c0.71,-0.9 1.62,-1.47 2.74,-1.73c0.3,-1.36 1,-2.48 2.08,-3.35c1.08,-0.87 2.32,-1.31 3.73,-1.31c1.03,0 1.93,0.22 2.7,0.66c1.11,-1.16 2.4,-1.74 3.88,-1.74c0.71,0 1.39,0.13 2.04,0.41c0.65,0.27 1.2,0.65 1.67,1.12c0.47,0.47 0.85,1.02 1.12,1.67c0.27,0.65 0.41,1.33 0.41,2.04c0,1.27 -0.38,2.38 -1.14,3.3c0.28,0.67 0.42,1.34 0.42,2c0,0.9 -0.23,1.73 -0.67,2.49c-0.44,0.76 -1.05,1.36 -1.81,1.8c-0.76,0.44 -1.59,0.66 -2.48,0.66h-10.83c-0.89,0 -1.71,-0.22 -2.47,-0.66c-0.76,-0.44 -1.36,-1.04 -1.8,-1.8c-0.44,-0.76 -0.66,-1.59 -0.66,-2.49c0,-1.15 0.36,-2.17 1.07,-3.07zM309.22,187.84c0.64,0.65 1.39,0.97 2.27,0.97h10.84c0.88,0 1.65,-0.32 2.28,-0.96c0.63,-0.64 0.95,-1.41 0.95,-2.32c0,-0.88 -0.32,-1.63 -0.96,-2.27c-0.64,-0.64 -1.4,-0.96 -2.28,-0.96h-1.61c-0.12,0 -0.19,-0.06 -0.21,-0.17l-0.07,-0.58c-0.1,-1.08 -0.55,-1.98 -1.37,-2.71c-0.81,-0.73 -1.77,-1.1 -2.87,-1.1c-1.07,0 -2.01,0.36 -2.81,1.09c-0.8,0.72 -1.27,1.63 -1.41,2.71l-0.07,0.54c0,0.12 -0.07,0.18 -0.19,0.18l-0.5,0.03c-0.84,0.1 -1.54,0.45 -2.1,1.06c-0.56,0.61 -0.84,1.33 -0.84,2.17c0,0.9 0.32,1.67 0.95,2.32zM315.22,172.65c0.17,-0.17 0.38,-0.25 0.62,-0.25c0.23,0 0.43,0.08 0.61,0.24l0.59,0.66c0.17,0.15 0.26,0.35 0.26,0.59c0,0.24 -0.08,0.45 -0.24,0.62c-0.16,0.17 -0.34,0.26 -0.55,0.26c-0.18,0.02 -0.39,-0.06 -0.64,-0.25l-0.66,-0.64c-0.16,-0.18 -0.24,-0.39 -0.24,-0.63c0,-0.24 0.08,-0.44 0.25,-0.6zM322,180.62h0.32c1.36,0 2.52,0.48 3.49,1.44c0.34,-0.6 0.51,-1.22 0.51,-1.84c0,-0.99 -0.35,-1.82 -1.04,-2.51c-0.69,-0.69 -1.53,-1.03 -2.52,-1.03c-0.94,0 -1.76,0.33 -2.45,1c0.88,0.87 1.44,1.85 1.69,2.94zM321.94,170.35c0,-0.24 0.07,-0.44 0.23,-0.59c0.16,-0.15 0.35,-0.23 0.59,-0.23c0.25,0 0.45,0.07 0.61,0.23c0.16,0.16 0.24,0.35 0.24,0.59v2.05c0,0.26 -0.07,0.46 -0.23,0.62c-0.16,0.15 -0.36,0.23 -0.62,0.23c-0.24,0 -0.44,-0.07 -0.59,-0.23c-0.15,-0.16 -0.23,-0.36 -0.23,-0.62zM327.68,174.07l1.47,-1.43c0.15,-0.16 0.34,-0.24 0.58,-0.24c0.23,0 0.43,0.08 0.59,0.24c0.16,0.16 0.24,0.36 0.24,0.6c0,0.25 -0.08,0.46 -0.24,0.64l-1.43,1.43c-0.21,0.16 -0.41,0.24 -0.59,0.24c-0.2,0 -0.41,-0.08 -0.62,-0.24c-0.15,-0.16 -0.22,-0.36 -0.22,-0.62c0,-0.23 0.07,-0.43 0.22,-0.62zM328.51,185.93c0.16,-0.16 0.36,-0.24 0.6,-0.24c0.22,0 0.41,0.08 0.57,0.24l0.65,0.65c0.16,0.16 0.24,0.36 0.24,0.58c0,0.25 -0.08,0.45 -0.24,0.62c-0.16,0.17 -0.36,0.25 -0.6,0.25c-0.24,0 -0.43,-0.08 -0.58,-0.24l-0.65,-0.63c-0.17,-0.18 -0.25,-0.39 -0.25,-0.63c0,-0.24 0.09,-0.44 0.26,-0.6zM329.98,179.62c0.17,-0.17 0.37,-0.25 0.61,-0.25h2.04c0.23,0 0.43,0.09 0.58,0.25c0.15,0.16 0.23,0.36 0.23,0.6c0,0.24 -0.07,0.44 -0.23,0.59c-0.16,0.15 -0.35,0.23 -0.58,0.23h-2.04c-0.24,0 -0.45,-0.08 -0.61,-0.24c-0.17,-0.16 -0.26,-0.35 -0.26,-0.58c0,-0.23 0.08,-0.43 0.26,-0.6z"/></g></g></svg>