<svg version="1.1" xmlns="http://www.w3.org/2000/svg" xmlns:xlink="http://www.w3.org/1999/xlink" width="26.98" height="26.83" viewBox="0,0,26.98,26.83"><g transform="translate(-306.51,-166.585)"><g data-paper-data="{&quot;isPaintingLayer&quot;:true}" fill="#ff0000" fill-rule="nonzero" stroke="none" stroke-width="1" stroke-linecap="butt" stroke-linejoin="miter" stroke-miterlimit="10" stroke-dasharray="" stroke-dashoffset="0" style="mix-blend-mode: normal"><path d="M307.59,179.545c0.72,-0.9 1.63,-1.48 2.74,-1.74c0.31,-1.36 1.01,-2.48 2.1,-3.36c1.09,-0.88 2.35,-1.32 3.76,-1.32c0.99,0 1.89,0.22 2.71,0.66c1.03,-1.16 2.32,-1.74 3.88,-1.74c0.94,0 1.81,0.23 2.62,0.7c0.81,0.47 1.45,1.11 1.92,1.92c0.47,0.81 0.71,1.69 0.71,2.64c0,1.24 -0.39,2.34 -1.17,3.31c0.28,0.62 0.42,1.29 0.42,2.01c0,1.33 -0.46,2.48 -1.39,3.45c-0.93,0.96 -2.06,1.47 -3.39,1.51c-0.13,0 -0.19,-0.06 -0.19,-0.17v-1.34c0,-0.11 0.07,-0.17 0.19,-0.17c0.85,-0.05 1.58,-0.39 2.18,-1.03c0.6,-0.64 0.9,-1.39 0.9,-2.26c0,-0.88 -0.32,-1.63 -0.97,-2.27c-0.65,-0.64 -1.41,-0.96 -2.3,-0.96h-1.62c-0.11,0 -0.17,-0.07 -0.17,-0.19l-0.07,-0.57c-0.12,-1.08 -0.58,-1.99 -1.4,-2.72c-0.82,-0.73 -1.77,-1.1 -2.86,-1.1c-1.09,0 -2.04,0.37 -2.85,1.1c-0.81,0.73 -1.26,1.64 -1.37,2.72l-0.07,0.54c0,0.11 -0.07,0.17 -0.2,0.17l-0.53,0.05c-0.83,0.1 -1.53,0.45 -2.1,1.07c-0.57,0.62 -0.85,1.34 -0.85,2.16c0,0.86 0.3,1.62 0.9,2.26c0.6,0.64 1.33,0.99 2.19,1.03c0.11,0 0.17,0.06 0.17,0.17v1.34c0,0.11 -0.06,0.17 -0.17,0.17c-1.35,-0.06 -2.48,-0.57 -3.41,-1.53c-0.93,-0.96 -1.39,-2.11 -1.39,-3.44c0,-1.15 0.36,-2.17 1.08,-3.07zM311.95,189.255l1.58,-5.91c0.07,-0.23 0.21,-0.4 0.41,-0.51c0.2,-0.12 0.41,-0.14 0.63,-0.07c0.23,0.05 0.41,0.17 0.53,0.38c0.12,0.21 0.15,0.43 0.08,0.67l-1.58,5.88c-0.12,0.43 -0.38,0.64 -0.77,0.64c-0.07,0 -0.16,-0.02 -0.27,-0.04c-0.22,-0.06 -0.38,-0.17 -0.49,-0.33c-0.11,-0.16 -0.16,-0.32 -0.16,-0.49c0,-0.02 0.02,-0.09 0.04,-0.22zM314.55,192.305l2.4,-8.93c0.06,-0.23 0.2,-0.4 0.4,-0.51c0.2,-0.12 0.42,-0.14 0.65,-0.07c0.22,0.07 0.39,0.21 0.5,0.4c0.11,0.19 0.13,0.41 0.07,0.64l-2.4,8.93c-0.04,0.2 -0.13,0.36 -0.27,0.48c-0.14,0.11 -0.29,0.17 -0.45,0.17c-0.06,0 -0.15,-0.02 -0.26,-0.04c-0.25,-0.04 -0.42,-0.14 -0.52,-0.3c-0.1,-0.16 -0.15,-0.33 -0.15,-0.52c0,-0.01 0.01,-0.1 0.03,-0.25zM315.2,169.715c0.17,-0.17 0.38,-0.26 0.62,-0.26c0.22,0 0.42,0.08 0.6,0.25l0.64,0.65c0.16,0.18 0.24,0.4 0.24,0.64c0,0.24 -0.09,0.43 -0.26,0.59c-0.17,0.15 -0.37,0.23 -0.58,0.23c-0.22,0 -0.43,-0.07 -0.62,-0.22l-0.65,-0.66c-0.17,-0.17 -0.25,-0.37 -0.25,-0.61c0,-0.23 0.09,-0.44 0.26,-0.61zM318.71,189.255l1.58,-5.91c0.06,-0.23 0.19,-0.4 0.39,-0.51c0.2,-0.12 0.41,-0.14 0.65,-0.07c0.22,0.07 0.39,0.2 0.5,0.4c0.11,0.19 0.13,0.41 0.07,0.64l-1.58,5.88c-0.05,0.23 -0.15,0.39 -0.3,0.49c-0.15,0.1 -0.32,0.15 -0.49,0.15c-0.05,0 -0.14,-0.02 -0.25,-0.04c-0.2,-0.06 -0.36,-0.17 -0.46,-0.32c-0.1,-0.15 -0.15,-0.31 -0.15,-0.47c0,-0.01 0.02,-0.09 0.04,-0.24zM321.97,177.715h0.33c1.36,0 2.52,0.48 3.49,1.45c0.35,-0.61 0.52,-1.23 0.52,-1.85c0,-0.99 -0.34,-1.83 -1.03,-2.52c-0.68,-0.69 -1.52,-1.04 -2.5,-1.04c-0.95,0 -1.77,0.33 -2.48,1c0.84,0.8 1.4,1.78 1.67,2.96zM321.93,169.505v-2.05c0,-0.25 0.08,-0.45 0.24,-0.62c0.16,-0.17 0.37,-0.25 0.62,-0.25c0.24,0 0.43,0.08 0.59,0.24c0.15,0.16 0.23,0.37 0.23,0.63v2.06c0,0.24 -0.08,0.43 -0.24,0.59c-0.16,0.15 -0.36,0.23 -0.59,0.23c-0.24,0 -0.44,-0.08 -0.61,-0.24c-0.17,-0.16 -0.25,-0.36 -0.25,-0.59zM327.72,171.155l1.43,-1.44c0.18,-0.17 0.37,-0.25 0.58,-0.25c0.24,0 0.44,0.08 0.61,0.24c0.17,0.16 0.25,0.37 0.25,0.61c0,0.25 -0.08,0.46 -0.26,0.63l-1.44,1.43c-0.18,0.19 -0.39,0.28 -0.62,0.26c-0.23,-0.02 -0.41,-0.1 -0.55,-0.26c-0.18,-0.15 -0.27,-0.35 -0.27,-0.59c0,-0.25 0.09,-0.46 0.27,-0.63zM328.5,183.045c0.16,-0.17 0.36,-0.25 0.59,-0.25c0.23,0 0.44,0.08 0.62,0.24l0.62,0.66c0.17,0.15 0.26,0.34 0.26,0.58c0,0.24 -0.08,0.45 -0.24,0.61c-0.16,0.16 -0.35,0.24 -0.58,0.24l-0.02,-0.02c-0.22,0 -0.42,-0.07 -0.6,-0.21l-0.65,-0.63c-0.16,-0.18 -0.24,-0.39 -0.24,-0.63c0,-0.24 0.08,-0.42 0.24,-0.59zM329.98,176.695c0.18,-0.17 0.38,-0.26 0.62,-0.26h2.03c0.24,0 0.44,0.09 0.61,0.26c0.17,0.17 0.25,0.37 0.25,0.61c0,0.23 -0.08,0.43 -0.25,0.6c-0.17,0.17 -0.37,0.25 -0.61,0.25h-2.03c-0.24,0 -0.44,-0.08 -0.62,-0.26c-0.17,-0.16 -0.26,-0.35 -0.26,-0.59c0,-0.24 0.08,-0.44 0.26,-0.61z"/></g></g></svg>