<svg version="1.1" xmlns="http://www.w3.org/2000/svg" xmlns:xlink="http://www.w3.org/1999/xlink" width="15.35" height="10.52" viewBox="0,0,15.35,10.52"><g transform="translate(-312.325,-174.74)"><g data-paper-data="{&quot;isPaintingLayer&quot;:true}" fill="#ff0000" fill-rule="nonzero" stroke="none" stroke-width="1" stroke-linecap="butt" stroke-linejoin="miter" stroke-miterlimit="10" stroke-dasharray="" stroke-dashoffset="0" style="mix-blend-mode: normal"><path d="M312.325,181.42c0,-0.23 0.08,-0.41 0.23,-0.56c0.16,-0.15 0.37,-0.22 0.64,-0.22h5.71c0.27,0 0.48,0.07 0.64,0.22c0.16,0.15 0.23,0.33 0.23,0.56c0,0.27 -0.08,0.49 -0.23,0.64c-0.15,0.15 -0.37,0.23 -0.64,0.23h-5.71c-0.27,0 -0.48,-0.08 -0.64,-0.23c-0.16,-0.15 -0.23,-0.36 -0.23,-0.64zM312.325,175.51c0,-0.22 0.08,-0.41 0.23,-0.55c0.16,-0.15 0.37,-0.22 0.64,-0.22h2.96c0.27,0 0.48,0.07 0.64,0.22c0.16,0.14 0.24,0.33 0.24,0.55c0,0.27 -0.08,0.48 -0.24,0.64c-0.16,0.16 -0.37,0.24 -0.64,0.24h-2.96c-0.27,0 -0.48,-0.08 -0.64,-0.23c-0.16,-0.15 -0.23,-0.38 -0.23,-0.65zM313.315,184.38c0,-0.22 0.09,-0.42 0.28,-0.6c0.18,-0.18 0.39,-0.28 0.6,-0.28c0.26,0 0.46,0.09 0.62,0.27c0.16,0.18 0.24,0.38 0.24,0.61c0,0.27 -0.08,0.49 -0.23,0.65c-0.15,0.16 -0.36,0.23 -0.63,0.23c-0.23,0 -0.44,-0.08 -0.61,-0.24c-0.19,-0.17 -0.27,-0.38 -0.27,-0.64zM314.735,178.45c0,-0.23 0.07,-0.44 0.22,-0.61c0.15,-0.18 0.33,-0.27 0.54,-0.27c0.26,0 0.48,0.09 0.64,0.27c0.16,0.18 0.24,0.38 0.24,0.61c0,0.27 -0.08,0.49 -0.23,0.65c-0.16,0.16 -0.37,0.23 -0.65,0.23c-0.23,0 -0.41,-0.08 -0.55,-0.24c-0.14,-0.16 -0.21,-0.37 -0.21,-0.64zM315.725,184.38c0,-0.23 0.08,-0.44 0.24,-0.61c0.16,-0.17 0.38,-0.27 0.64,-0.27h3.83l0.88,0.88c0,0.26 -0.09,0.47 -0.27,0.64c-0.18,0.17 -0.38,0.24 -0.61,0.24h-3.83c-0.27,0 -0.49,-0.08 -0.65,-0.24c-0.16,-0.16 -0.23,-0.37 -0.23,-0.64zM317.045,178.45c0,-0.22 0.09,-0.42 0.28,-0.6c0.18,-0.18 0.39,-0.28 0.6,-0.28h3.83c0.26,0 0.47,0.09 0.63,0.27c0.16,0.18 0.24,0.38 0.24,0.61c0,0.27 -0.08,0.49 -0.23,0.65c-0.16,0.16 -0.37,0.23 -0.64,0.23h-3.83c-0.23,0 -0.44,-0.08 -0.61,-0.24c-0.18,-0.16 -0.27,-0.37 -0.27,-0.64zM317.805,175.51c0,-0.22 0.08,-0.41 0.24,-0.55c0.16,-0.14 0.37,-0.22 0.64,-0.22h5.71c0.23,0 0.43,0.08 0.61,0.23c0.18,0.15 0.27,0.33 0.27,0.54c0,0.26 -0.09,0.48 -0.27,0.64c-0.18,0.16 -0.38,0.24 -0.61,0.24h-5.71c-0.27,0 -0.49,-0.08 -0.65,-0.24c-0.16,-0.16 -0.23,-0.37 -0.23,-0.64zM320.435,181.42c0,-0.21 0.09,-0.4 0.27,-0.55c0.18,-0.15 0.38,-0.23 0.61,-0.23c0.23,0 0.43,0.08 0.61,0.23c0.18,0.15 0.27,0.34 0.27,0.55c0,0.26 -0.09,0.47 -0.27,0.63c-0.18,0.16 -0.38,0.24 -0.61,0.24c-0.23,0 -0.44,-0.08 -0.61,-0.24c-0.18,-0.15 -0.27,-0.36 -0.27,-0.63zM321.975,184.38c0,-0.23 0.08,-0.44 0.24,-0.61c0.16,-0.18 0.37,-0.27 0.63,-0.27h1.87c0.26,0 0.47,0.09 0.63,0.26c0.16,0.17 0.24,0.38 0.24,0.62c0,0.27 -0.08,0.49 -0.23,0.65c-0.15,0.16 -0.37,0.23 -0.64,0.23h-1.87c-0.27,0 -0.48,-0.08 -0.64,-0.23c-0.15,-0.16 -0.23,-0.38 -0.23,-0.65zM322.845,181.42c0,-0.21 0.09,-0.4 0.27,-0.55c0.18,-0.15 0.38,-0.23 0.61,-0.23h3.07c0.22,0 0.4,0.08 0.54,0.23c0.14,0.15 0.22,0.33 0.22,0.55c0,0.27 -0.07,0.48 -0.21,0.64c-0.14,0.16 -0.32,0.23 -0.55,0.23h-3.07c-0.23,0 -0.44,-0.08 -0.61,-0.24c-0.18,-0.15 -0.27,-0.36 -0.27,-0.63zM323.285,178.45c0,-0.22 0.09,-0.42 0.28,-0.6c0.18,-0.18 0.39,-0.28 0.6,-0.28h1.96c0.21,0 0.39,0.09 0.54,0.27c0.15,0.18 0.23,0.38 0.23,0.61c0,0.27 -0.07,0.48 -0.22,0.64c-0.14,0.16 -0.33,0.24 -0.55,0.24h-1.96c-0.23,0 -0.44,-0.08 -0.61,-0.24c-0.18,-0.16 -0.27,-0.37 -0.27,-0.64zM326.025,175.51c0,-0.22 0.07,-0.4 0.22,-0.55c0.15,-0.15 0.33,-0.22 0.55,-0.22c0.27,0 0.48,0.07 0.64,0.22c0.16,0.14 0.24,0.33 0.24,0.55c0,0.27 -0.08,0.48 -0.24,0.64c-0.16,0.16 -0.37,0.24 -0.64,0.24c-0.23,0 -0.41,-0.08 -0.55,-0.24c-0.15,-0.16 -0.22,-0.37 -0.22,-0.64z"/></g></g></svg>