<svg version="1.1" xmlns="http://www.w3.org/2000/svg" xmlns:xlink="http://www.w3.org/1999/xlink" width="199.90321" height="197.16673" viewBox="0,0,199.90321,197.16673"><g transform="translate(-158.8609,-60.08328)"><g data-paper-data="{&quot;isPaintingLayer&quot;:true}" fill="none" fill-rule="nonzero" stroke="#ffffff" stroke-width="5.5" stroke-linecap="butt" stroke-linejoin="miter" stroke-miterlimit="10" stroke-dasharray="" stroke-dashoffset="0" style="mix-blend-mode: normal"><path d="M165.5,254.5c0,0 0,-43.41417 0,-66.84326c0,-4.21615 44.24343,28.48336 44.33333,-16c0.07816,-38.66981 -44.33333,-10.48219 -44.33333,-16.66667c0,-24.39869 0,-49.49007 0,-49.49007c0,0 31.24856,0 51,0c5.69362,0 -21.74265,-42.72503 22.66666,-42.66666c48.02952,0.06312 17.29457,42.66667 26.66667,42.66667c25.15218,0 48.66667,0 48.66667,0c0,0 0,31.85601 0,51.8234c0,4.07127 41.65083,-24.57916 41.51378,16.00254c-0.15174,44.9308 -41.84711,11.85238 -41.84711,18.99746c0,29.42613 0.33333,62.1766 0.33333,62.1766c0,0 -27.18948,0 -53.66667,0c-8.11212,0 18.17609,-27.68445 -20.66667,-28c-35.19321,-0.28591 -13.20449,28 -17.33333,28c-21.34298,0 -57.33334,0 -57.33334,0z"/></g></g></svg>