<svg version="1.1" xmlns="http://www.w3.org/2000/svg" xmlns:xlink="http://www.w3.org/1999/xlink" width="24.00776" height="17.125" viewBox="0,0,24.00776,17.125"><defs><linearGradient x1="311.4375" y1="180" x2="328.5625" y2="180" gradientUnits="userSpaceOnUse" id="color-1"><stop offset="0" stop-color="#9966ff" stop-opacity="0"/><stop offset="1" stop-color="#9966ff" stop-opacity="0"/></linearGradient></defs><g transform="translate(-304.55474,-171.4375)"><g data-paper-data="{&quot;isPaintingLayer&quot;:true}" fill-rule="nonzero" stroke="none" stroke-linecap="butt" stroke-linejoin="miter" stroke-miterlimit="10" stroke-dasharray="" stroke-dashoffset="0" style="mix-blend-mode: normal"><path d="M311.4375,188.5625v-17.125h17.125v17.125z" fill="url(#color-1)" stroke-width="0"/><path d="M315.10013,180.49667c-0.07773,2.20238 -3.56729,1.75218 -7.05543,1.51298c-0.04122,0.53014 -0.09168,3.00112 -0.11717,3.39342c-0.09986,1.53654 1.10153,2.97676 -2.12082,2.80353c-2.29877,0.08576 -0.82082,-13.12736 -0.34077,-16.11165c1.7392,-0.11205 10.36676,-0.86312 10.14712,1.78688c-0.16197,1.95423 -4.36212,1.3117 -7.1038,1.35633c-0.00206,0.78307 -0.13434,3.00268 -0.16882,3.8291c2.63201,-0.59864 6.81725,-0.20181 6.75968,1.42942z" fill="#fc0000" stroke-width="0.5"/></g></g></svg>