<svg version="1.1" xmlns="http://www.w3.org/2000/svg" xmlns:xlink="http://www.w3.org/1999/xlink" width="20.72" height="20.15" viewBox="0,0,20.72,20.15"><g transform="translate(-309.64,-169.925)"><g data-paper-data="{&quot;isPaintingLayer&quot;:true}" fill="#ff0000" fill-rule="nonzero" stroke="none" stroke-width="1" stroke-linecap="butt" stroke-linejoin="miter" stroke-miterlimit="10" stroke-dasharray="" stroke-dashoffset="0" style="mix-blend-mode: normal"><path d="M310.7,176.325c0.72,-0.9 1.63,-1.47 2.73,-1.73c0.31,-1.37 1.01,-2.49 2.1,-3.36c1.09,-0.87 2.35,-1.31 3.76,-1.31c1.38,0 2.6,0.43 3.68,1.27c1.08,0.84 1.78,1.93 2.11,3.26h0.32c0.89,0 1.72,0.22 2.48,0.66c0.76,0.44 1.36,1.04 1.81,1.8c0.45,0.76 0.67,1.59 0.67,2.49c0,0.65 -0.13,1.28 -0.38,1.88c-0.25,0.61 -0.59,1.13 -1.01,1.57c-0.42,0.44 -0.93,0.8 -1.52,1.07c-0.59,0.27 -1.21,0.42 -1.86,0.44c-0.13,0 -0.2,-0.06 -0.2,-0.17v-1.37c0,-0.13 0.07,-0.19 0.2,-0.19c0.87,-0.07 1.6,-0.41 2.19,-1.03c0.59,-0.62 0.89,-1.36 0.89,-2.21c0,-0.89 -0.32,-1.65 -0.96,-2.28c-0.64,-0.63 -1.41,-0.95 -2.32,-0.95h-1.61c-0.13,0 -0.19,-0.06 -0.19,-0.18l-0.06,-0.58c-0.12,-1.08 -0.58,-1.99 -1.4,-2.72c-0.81,-0.73 -1.76,-1.1 -2.85,-1.1c-1.09,0 -2.04,0.37 -2.85,1.1c-0.81,0.73 -1.26,1.64 -1.36,2.72l-0.07,0.52c0,0.11 -0.07,0.17 -0.2,0.17l-0.52,0.07c-0.84,0.1 -1.54,0.45 -2.1,1.06c-0.56,0.61 -0.84,1.33 -0.84,2.16c0,0.75 0.23,1.42 0.7,2.01c0.47,0.59 1.06,0.98 1.77,1.16l1.09,-2.87c0.05,-0.09 0.13,-0.14 0.22,-0.14h2.94c0.16,0 0.2,0.07 0.14,0.21l-2.48,4.64h2.18c0.07,0 0.12,0.02 0.14,0.07c0.02,0.05 0.02,0.1 -0.02,0.14l-3.97,5.22h-0.28l1.04,-3.78h-2.13c-0.12,0 -0.17,-0.08 -0.14,-0.22l0.65,-1.68c-1.05,-0.32 -1.9,-0.92 -2.56,-1.79c-0.66,-0.87 -0.99,-1.86 -0.99,-2.97c0,-1.15 0.34,-2.16 1.06,-3.06zM317.82,188.985l0.27,-1c0.07,-0.24 0.21,-0.41 0.41,-0.53c0.2,-0.12 0.41,-0.14 0.63,-0.08c0.24,0.07 0.41,0.2 0.53,0.4c0.12,0.2 0.14,0.41 0.08,0.63l-0.28,1.05c-0.07,0.25 -0.21,0.43 -0.42,0.52c-0.17,0.07 -0.29,0.1 -0.38,0.1c-0.03,0 -0.11,-0.02 -0.25,-0.05c-0.2,-0.06 -0.36,-0.17 -0.46,-0.32c-0.1,-0.15 -0.15,-0.3 -0.15,-0.46c0,0 0.01,-0.09 0.02,-0.26zM319.17,184.205l0.24,-1.01c0.07,-0.23 0.2,-0.4 0.41,-0.52c0.21,-0.12 0.42,-0.14 0.65,-0.08c0.23,0.07 0.41,0.21 0.53,0.41c0.11,0.2 0.14,0.41 0.08,0.63l-0.3,1.04c-0.07,0.24 -0.2,0.41 -0.4,0.52c-0.2,0.11 -0.42,0.12 -0.64,0.05c-0.2,-0.07 -0.35,-0.18 -0.45,-0.33c-0.1,-0.15 -0.15,-0.3 -0.15,-0.44c0,-0.01 0.01,-0.1 0.03,-0.27zM321.99,185.925l0.27,-1.03c0.04,-0.23 0.17,-0.41 0.37,-0.53c0.2,-0.11 0.43,-0.14 0.68,-0.08c0.22,0.07 0.39,0.21 0.5,0.42c0.11,0.21 0.13,0.43 0.06,0.66l-0.25,1.01c-0.08,0.31 -0.22,0.5 -0.41,0.57c-0.12,0.06 -0.25,0.08 -0.38,0.08c-0.03,0 -0.07,-0.01 -0.12,-0.02c-0.06,-0.01 -0.1,-0.02 -0.12,-0.02c-0.2,-0.07 -0.36,-0.18 -0.47,-0.35c-0.11,-0.17 -0.16,-0.34 -0.16,-0.51c0,-0.07 0.01,-0.14 0.03,-0.2zM323.34,181.115l0.27,-1.01c0.06,-0.22 0.17,-0.38 0.33,-0.48c0.16,-0.1 0.32,-0.15 0.49,-0.15c0.03,0 0.07,0 0.13,0.03c0.05,0.01 0.09,0.02 0.11,0.02c0.22,0.06 0.38,0.17 0.49,0.33c0.11,0.16 0.16,0.32 0.16,0.49c0,0.02 -0.01,0.09 -0.03,0.22l-0.29,1.03c-0.09,0.28 -0.23,0.47 -0.44,0.57c-0.12,0.05 -0.23,0.08 -0.34,0.08c-0.1,0 -0.18,-0.02 -0.26,-0.06c-0.22,-0.1 -0.38,-0.22 -0.49,-0.38c-0.11,-0.16 -0.16,-0.31 -0.15,-0.47c0,-0.07 0.01,-0.14 0.02,-0.22z"/></g></g></svg>