<svg version="1.1" xmlns="http://www.w3.org/2000/svg" xmlns:xlink="http://www.w3.org/1999/xlink" width="59.88753" height="28.55032" viewBox="0,0,59.88753,28.55032"><g transform="translate(-209.2229,-165.72489)"><g data-paper-data="{&quot;isPaintingLayer&quot;:true}" fill-rule="nonzero" stroke="#ffffff" stroke-width="0" stroke-linecap="butt" stroke-linejoin="miter" stroke-miterlimit="10" stroke-dasharray="" stroke-dashoffset="0" style="mix-blend-mode: normal"><g fill="#ff5800"><path d="M222.74665,194.23779v-28.47556h31.38161v28.47556z"/><path d="M209.2229,180.00005c0,-7.88395 6.22941,-14.27516 13.91376,-14.27516c7.68435,0 13.91375,6.39121 13.91375,14.27516c0,7.88395 -6.2294,14.27516 -13.91375,14.27516c-7.68435,0 -13.91376,-6.39121 -13.91376,-14.27516z"/><path d="M241.28293,180.00005c0,-7.88395 6.2294,-14.27516 13.91375,-14.27516c7.68435,0 13.91375,6.39121 13.91375,14.27516c0,7.88395 -6.2294,14.27516 -13.91375,14.27516c-7.68435,0 -13.91375,-6.39121 -13.91375,-14.27516z"/></g><g fill="#212121"><path d="M223.50028,193.24047v-26.4808h29.9413v26.4808z"/><path d="M210.59722,180.00005c0,-7.33166 5.9435,-13.27516 13.27516,-13.27516c7.33166,0 13.27515,5.94349 13.27515,13.27516c0,7.33166 -5.94349,13.27516 -13.27515,13.27516c-7.33166,0 -13.27516,-5.94349 -13.27516,-13.27516z"/><path d="M241.1858,180.00005c0,-7.33166 5.94349,-13.27516 13.27516,-13.27516c7.33166,0 13.27515,5.94349 13.27515,13.27516c0,7.33166 -5.94349,13.27516 -13.27515,13.27516c-7.33166,0 -13.27516,-5.94349 -13.27516,-13.27516z"/></g><path d="M218.82902,180.00005c0,-5.82439 5.81289,-10.54599 12.98348,-10.54599c7.17059,0 12.98349,4.7216 12.98349,10.54599c0,5.82439 -5.8129,10.54598 -12.98349,10.54598c-7.17059,0 -12.98348,-4.7216 -12.98348,-10.54598z" fill="#ffffff"/></g></g></svg>