<svg version="1.1" xmlns="http://www.w3.org/2000/svg" xmlns:xlink="http://www.w3.org/1999/xlink" width="17.125" height="17.125" viewBox="0,0,17.125,17.125"><defs><linearGradient x1="231.4375" y1="180" x2="248.5625" y2="180" gradientUnits="userSpaceOnUse" id="color-1"><stop offset="0" stop-color="#9966ff" stop-opacity="0"/><stop offset="1" stop-color="#9966ff" stop-opacity="0"/></linearGradient></defs><g transform="translate(-231.4375,-171.4375)"><g data-paper-data="{&quot;isPaintingLayer&quot;:true}" fill-rule="nonzero" stroke="none" stroke-linecap="butt" stroke-linejoin="miter" stroke-miterlimit="10" stroke-dasharray="" stroke-dashoffset="0" style="mix-blend-mode: normal"><path d="M231.4375,188.5625v-17.125h17.125v17.125z" fill="url(#color-1)" stroke-width="0"/><path d="M246.033,186.6938c-0.0022,0.4794 -0.1987,0.9375 -0.5446,1.2696c-0.3458,0.332 -0.8115,0.5097 -1.2906,0.4925h-8.541c-0.4617,-0.004 -0.9015,-0.1976 -1.2162,-0.5354c-0.3147,-0.3378 -0.4767,-0.7902 -0.448,-1.251c0.023,-0.7154 0.3421,-1.3891 0.8811,-1.8601l4.5519,-4.6009c1.0766,-1.0767 1.8111,-2.0068 1.8111,-3.3037c0,-1.1749 -0.8811,-1.7866 -1.9091,-1.7866c-0.9545,0 -1.6152,0.5384 -2.2025,1.2236c-0.3421,0.4578 -0.8727,0.7366 -1.4438,0.7587c-0.4323,0.0255 -0.8569,-0.1232 -1.1788,-0.4129c-0.3219,-0.2897 -0.5144,-0.6963 -0.5344,-1.1289c-0.0176,-0.5587 0.1646,-1.1054 0.5138,-1.5418c1.1834,-1.6022 3.075,-2.5251 5.0661,-2.4718c3.5974,0 5.653,2.2515 5.653,5.2373c0,1.8599 -0.8563,3.3282 -2.6429,5.1638l-2.9856,3.0346h4.6253c0.4737,-0.0282 0.9382,0.1391 1.2851,0.4628c0.3468,0.3238 0.5457,0.7757 0.5502,1.2502z" fill="#fc0000" stroke-width="1"/></g></g></svg>