<svg version="1.1" xmlns="http://www.w3.org/2000/svg" xmlns:xlink="http://www.w3.org/1999/xlink" width="17.125" height="17.125" viewBox="0,0,17.125,17.125"><defs><linearGradient x1="231.4375" y1="180" x2="248.5625" y2="180" gradientUnits="userSpaceOnUse" id="color-1"><stop offset="0" stop-color="#9966ff" stop-opacity="0"/><stop offset="1" stop-color="#9966ff" stop-opacity="0"/></linearGradient></defs><g transform="translate(-231.4375,-171.4375)"><g data-paper-data="{&quot;isPaintingLayer&quot;:true}" fill-rule="nonzero" stroke="none" stroke-linecap="butt" stroke-linejoin="miter" stroke-miterlimit="10" stroke-dasharray="" stroke-dashoffset="0" style="mix-blend-mode: normal"><path d="M231.4375,188.5625v-17.125h17.125v17.125z" fill="url(#color-1)" stroke-width="0"/><path d="M246.3996,182.8634c0.0003,0.4132 -0.1655,0.8093 -0.46,1.0992c-0.2945,0.2899 -0.6931,0.4494 -1.1063,0.4425h-0.7831v2.4719c-0.0135,0.9229 -0.7655,1.664 -1.6885,1.664c-0.9231,0 -1.6751,-0.7411 -1.6885,-1.664v-2.4719h-5.3354c-0.4525,0.0147 -0.8918,-0.1536 -1.2186,-0.4667c-0.3269,-0.3132 -0.5139,-0.7448 -0.5188,-1.1975c0.0136,-0.5807 0.2202,-1.1404 0.5873,-1.5907l5.9713,-8.6145c0.3818,-0.6667 1.0917,-1.0777 1.86,-1.0767c0.5392,-0.0014 1.0566,0.2122 1.4378,0.5935c0.3812,0.3812 0.5947,0.8986 0.5933,1.4378v7.8068h0.7832c0.4158,-0.0013 0.8149,0.1633 1.1089,0.4573c0.294,0.294 0.4586,0.6932 0.4573,1.109zM240.6731,181.2971v-4.6743l-3.2059,4.6988z" fill="#fc0000" stroke-width="1"/></g></g></svg>