<svg version="1.1" xmlns="http://www.w3.org/2000/svg" xmlns:xlink="http://www.w3.org/1999/xlink" width="88.44037" height="27.59185" viewBox="0,0,88.44037,27.59185"><g transform="translate(-309.48187,-166.20407)"><g data-paper-data="{&quot;isPaintingLayer&quot;:true}" fill-rule="nonzero" stroke-linejoin="miter" stroke-miterlimit="10" stroke-dasharray="" stroke-dashoffset="0" style="mix-blend-mode: normal"><text transform="translate(329.53776,185.12616) scale(0.42718,0.42718)" font-size="40" xml:space="preserve" fill="#ffffff" fill-rule="nonzero" stroke="none" stroke-width="1" stroke-linecap="butt" stroke-linejoin="miter" stroke-miterlimit="10" stroke-dasharray="" stroke-dashoffset="0" font-family="Sans Serif" font-weight="normal" text-anchor="start" style="mix-blend-mode: normal"><tspan x="0" dy="0">Clock</tspan></text><path d="M316.90632,173.00485l5.93215,5.93215l-5.77604,5.77604" data-paper-data="{&quot;index&quot;:null}" fill="none" stroke="#ffffff" stroke-width="3" stroke-linecap="round"/><g fill="none" stroke="#ffffff" stroke-width="1"><path d="M379.88536,178.83001c0,-3.64738 2.95679,-6.60417 6.60417,-6.60417c3.64738,0 6.60417,2.95679 6.60417,6.60417c0,3.64738 -2.95679,6.60417 -6.60417,6.60417c-3.64738,0 -6.60417,-2.95679 -6.60417,-6.60417z" stroke-linecap="butt"/><path d="M389.57857,178.90642c0,0 -3.00567,0.11899 -3.16459,-0.01473c-0.23894,-0.20107 -0.13749,-2.86127 -0.13749,-2.86127" stroke-linecap="round"/></g><path d="M309.48187,193.79593v-27.59185h88.44037v27.59185z" fill-opacity="0.00784" fill="#000000" stroke="#ffffff" stroke-width="0" stroke-linecap="butt"/></g></g></svg>