<svg version="1.1" xmlns="http://www.w3.org/2000/svg" xmlns:xlink="http://www.w3.org/1999/xlink" width="21.87" height="22.32" viewBox="0,0,21.87,22.32"><g transform="translate(-309.065,-168.84)"><g data-paper-data="{&quot;isPaintingLayer&quot;:true}" fill="#ff0000" fill-rule="nonzero" stroke="none" stroke-width="1" stroke-linecap="butt" stroke-linejoin="miter" stroke-miterlimit="10" stroke-dasharray="" stroke-dashoffset="0" style="mix-blend-mode: normal"><path d="M310.155,177.31c0.72,-0.89 1.65,-1.46 2.77,-1.72c0.3,-1.37 0.98,-2.49 2.07,-3.36c1.09,-0.87 2.34,-1.31 3.75,-1.31c0.83,0 1.62,0.16 2.36,0.49c0.28,-0.47 0.62,-0.88 1,-1.23c0.38,-0.35 0.78,-0.61 1.2,-0.8c0.41,-0.19 0.81,-0.32 1.2,-0.41c0.38,-0.09 0.76,-0.13 1.14,-0.13c0.37,0 0.78,0.05 1.25,0.14l0.15,0.04l0.85,0.25l-0.2,0.8c-0.05,0.26 -0.08,0.52 -0.08,0.78c0,0.69 0.22,1.37 0.67,2.03c0.45,0.65 1.08,1.11 1.89,1.35l0.76,0.21l-0.19,0.79v0.13c-0.24,1.02 -0.77,1.89 -1.58,2.62c0.43,0.75 0.65,1.56 0.65,2.43c0,1.34 -0.46,2.49 -1.38,3.45c-0.92,0.96 -2.05,1.47 -3.38,1.51c-0.13,0 -0.2,-0.06 -0.2,-0.17v-1.37c0,-0.12 0.07,-0.18 0.2,-0.18c0.86,-0.07 1.6,-0.42 2.19,-1.04c0.59,-0.62 0.89,-1.36 0.89,-2.21c0,-0.89 -0.33,-1.65 -0.97,-2.28c-0.65,-0.63 -1.42,-0.95 -2.32,-0.95h-1.61c-0.12,0 -0.18,-0.06 -0.18,-0.18l-0.08,-0.58c-0.11,-1.09 -0.58,-2 -1.39,-2.72c-0.81,-0.73 -1.76,-1.09 -2.85,-1.09c-1.09,0 -2.04,0.36 -2.85,1.09c-0.81,0.72 -1.26,1.63 -1.37,2.71l-0.07,0.52c0,0.11 -0.07,0.17 -0.2,0.17l-0.53,0.07c-0.84,0.1 -1.54,0.45 -2.1,1.07c-0.56,0.62 -0.84,1.33 -0.84,2.16c0,0.85 0.3,1.59 0.89,2.21c0.59,0.63 1.32,0.97 2.19,1.04c0.11,0 0.17,0.06 0.17,0.18v1.37c0,0.11 -0.06,0.17 -0.17,0.17c-1.34,-0.06 -2.47,-0.58 -3.4,-1.53c-0.93,-0.95 -1.39,-2.1 -1.39,-3.43c0,-1.15 0.36,-2.18 1.09,-3.09zM314.515,186.9l0.23,-0.99c0.08,-0.23 0.22,-0.42 0.42,-0.53c0.2,-0.11 0.42,-0.14 0.65,-0.08c0.22,0.07 0.39,0.2 0.51,0.41c0.12,0.21 0.14,0.41 0.07,0.62l-0.28,1.06c-0.07,0.23 -0.2,0.4 -0.41,0.51c-0.21,0.11 -0.42,0.12 -0.64,0.05c-0.2,-0.07 -0.35,-0.18 -0.45,-0.33c-0.1,-0.15 -0.15,-0.3 -0.15,-0.45c0,-0.02 0.02,-0.11 0.05,-0.27zM315.815,182.14l0.27,-1.01c0.07,-0.24 0.2,-0.41 0.4,-0.52c0.2,-0.11 0.43,-0.13 0.67,-0.07c0.22,0.06 0.39,0.19 0.51,0.39c0.12,0.19 0.14,0.41 0.07,0.64l-0.28,1.03c-0.07,0.24 -0.21,0.42 -0.4,0.52c-0.2,0.1 -0.42,0.12 -0.66,0.06c-0.28,-0.08 -0.46,-0.21 -0.53,-0.38c-0.07,-0.13 -0.1,-0.25 -0.1,-0.36c0,-0.07 0.02,-0.17 0.05,-0.3zM317.045,190.04l0.25,-1.01c0.07,-0.24 0.21,-0.41 0.41,-0.53c0.2,-0.12 0.43,-0.14 0.67,-0.08c0.22,0.07 0.39,0.2 0.51,0.41c0.12,0.21 0.14,0.42 0.07,0.63l-0.3,1.05c-0.09,0.28 -0.23,0.47 -0.43,0.55c-0.17,0.07 -0.29,0.1 -0.38,0.1c-0.05,0 -0.12,-0.02 -0.23,-0.05c-0.2,-0.06 -0.35,-0.17 -0.45,-0.33c-0.1,-0.16 -0.15,-0.32 -0.15,-0.49c0,-0.08 0.01,-0.17 0.03,-0.25zM318.375,185.26l0.24,-1c0.07,-0.23 0.21,-0.42 0.42,-0.53c0.21,-0.11 0.44,-0.14 0.68,-0.08c0.22,0.07 0.38,0.21 0.49,0.41c0.11,0.2 0.13,0.41 0.06,0.62l-0.27,1.04c-0.07,0.24 -0.2,0.41 -0.4,0.52c-0.2,0.11 -0.42,0.13 -0.64,0.06c-0.21,-0.07 -0.36,-0.18 -0.46,-0.33c-0.1,-0.15 -0.15,-0.3 -0.15,-0.45zM321.175,187.13c0.01,-0.08 0.02,-0.13 0.02,-0.15l0.27,-1.04c0.07,-0.22 0.21,-0.39 0.4,-0.51c0.19,-0.12 0.41,-0.14 0.64,-0.07c0.24,0.05 0.41,0.17 0.53,0.37c0.12,0.2 0.14,0.42 0.08,0.67l-0.27,1.02c-0.08,0.3 -0.23,0.49 -0.44,0.57c-0.1,0.05 -0.22,0.07 -0.37,0.07c-0.07,0 -0.15,-0.01 -0.24,-0.03c-0.43,-0.13 -0.64,-0.37 -0.64,-0.75c0,-0.03 0,-0.08 0.02,-0.15zM322.585,182.23l0.26,-1.06c0.07,-0.23 0.2,-0.4 0.4,-0.52c0.2,-0.12 0.41,-0.14 0.63,-0.07c0.23,0.07 0.42,0.2 0.53,0.4c0.11,0.2 0.14,0.41 0.08,0.63l-0.28,1.04c-0.09,0.28 -0.23,0.47 -0.44,0.55c-0.17,0.07 -0.29,0.1 -0.38,0.1c-0.01,0 -0.09,-0.02 -0.23,-0.05c-0.2,-0.06 -0.36,-0.17 -0.46,-0.32c-0.1,-0.15 -0.15,-0.3 -0.15,-0.46c0,-0.06 0.01,-0.15 0.04,-0.24zM324.515,175.46h0.32c1.23,0 2.32,0.4 3.25,1.21c0.3,-0.3 0.56,-0.67 0.78,-1.1c-0.92,-0.45 -1.65,-1.1 -2.17,-1.96c-0.52,-0.86 -0.78,-1.76 -0.78,-2.71c0,-0.17 0,-0.29 0.01,-0.38h-0.21c-0.64,0 -1.24,0.16 -1.81,0.47c-0.57,0.31 -1.01,0.75 -1.33,1.31c1.05,0.92 1.69,1.97 1.94,3.16z"/></g></g></svg>